<svg width="36" height="36" viewBox="0 0 36 36" fill="none" xmlns="http://www.w3.org/2000/svg">
<g id="Group 172">
<path id="Vector" d="M3.86501 27.4449C1.99713 24.6494 1.0001 21.3628 0.999999 18.0007C1.00502 13.4934 2.79775 9.17221 5.98488 5.98508C9.17215 2.79781 13.4936 1.00507 18.0011 1.00019C21.363 1.0004 24.6493 1.99742 27.4447 3.86521C30.2403 5.73319 32.4192 8.38823 33.7059 11.4946C34.9926 14.6009 35.3293 18.019 34.6733 21.3167C34.0174 24.6144 32.3983 27.6435 30.0208 30.021C27.6433 32.3985 24.6142 34.0176 21.3165 34.6735C18.0189 35.3295 14.6007 34.9928 11.4944 33.7061C8.38803 32.4194 5.733 30.2405 3.86501 27.4449Z" stroke="white" stroke-width="2"/>
<path id="Vector_2" d="M18.0008 11.6366C17.7025 11.6366 17.4164 11.7551 17.2055 11.9661C16.9946 12.177 16.8761 12.4631 16.876 12.7614L16.876 16.8757L12.7617 16.8757C12.4668 16.8808 12.1856 17.0016 11.9789 17.212C11.7721 17.4223 11.6563 17.7055 11.6563 18.0005C11.6563 18.2955 11.7721 18.5787 11.9789 18.7891C12.1856 18.9995 12.4668 19.1202 12.7617 19.1253L16.876 19.1253L16.876 23.2396C16.8811 23.5346 17.0019 23.8157 17.2123 24.0225C17.4227 24.2292 17.7059 24.3451 18.0008 24.3451C18.2958 24.3451 18.579 24.2292 18.7894 24.0225C18.9998 23.8157 19.1205 23.5346 19.1257 23.2396V19.1253H23.24C23.5349 19.1202 23.816 18.9995 24.0228 18.7891C24.2296 18.5787 24.3454 18.2955 24.3454 18.0005C24.3454 17.7055 24.2296 17.4223 24.0228 17.212C23.816 17.0016 23.5349 16.8808 23.24 16.8757H19.1257V12.7614C19.1256 12.4631 19.0071 12.177 18.7962 11.9661C18.5852 11.7551 18.2991 11.6366 18.0008 11.6366Z" fill="white"/>
</g>
</svg>
