<svg width="36" height="36" viewBox="0 0 36 36" fill="none" xmlns="http://www.w3.org/2000/svg">
<g id="Group 172">
<path id="Vector" d="M-7.9404e-07 18.0002C-6.36993e-07 21.5603 1.05568 25.0404 3.03355 28.0005C5.01141 30.9606 7.82263 33.2677 11.1117 34.6301C14.4008 35.9924 18.02 36.3489 21.5116 35.6544C25.0033 34.9598 28.2106 33.2455 30.7279 30.7282C33.2453 28.2108 34.9596 25.0035 35.6541 21.5119C36.3487 18.0202 35.9922 14.401 34.6298 11.1119C33.2674 7.82288 30.9603 5.01166 28.0003 3.0338C25.0402 1.05594 21.5601 0.000254651 18 0.000254805C13.2277 0.0054163 8.65231 1.9035 5.27778 5.27803C1.90324 8.65256 0.00516062 13.2279 -7.9404e-07 18.0002Z" fill="#F1862F"/>
<path id="Vector_2" d="M18.0008 11.6365C17.7025 11.6365 17.4164 11.7551 17.2055 11.966C16.9946 12.1769 16.8761 12.463 16.876 12.7613L16.876 16.8756L12.7617 16.8756C12.4668 16.8807 12.1856 17.0015 11.9789 17.2119C11.7721 17.4223 11.6563 17.7055 11.6563 18.0005C11.6563 18.2954 11.7721 18.5786 11.9789 18.789C12.1856 18.9994 12.4668 19.1202 12.7617 19.1253L16.876 19.1253L16.876 23.2396C16.8811 23.5345 17.0019 23.8156 17.2123 24.0224C17.4227 24.2292 17.7059 24.345 18.0008 24.345C18.2958 24.345 18.579 24.2292 18.7894 24.0224C18.9998 23.8156 19.1205 23.5345 19.1257 23.2396V19.1253H23.24C23.5349 19.1202 23.816 18.9994 24.0228 18.789C24.2296 18.5786 24.3454 18.2954 24.3454 18.0004C24.3454 17.7055 24.2296 17.4223 24.0228 17.2119C23.816 17.0015 23.5349 16.8807 23.24 16.8756H19.1257V12.7613C19.1256 12.463 19.0071 12.1769 18.7962 11.966C18.5852 11.7551 18.2991 11.6365 18.0008 11.6365Z" fill="#110903"/>
</g>
</svg>
