<svg width="5" height="8" viewBox="0 0 5 8" fill="none" xmlns="http://www.w3.org/2000/svg">
<path d="M4 3.5C3.72386 3.5 3.5 3.72386 3.5 4C3.5 4.27614 3.72386 4.5 4 4.5L4 3.5ZM4.60355 4.35355C4.79882 4.15829 4.79882 3.84171 4.60355 3.64645L1.42157 0.464466C1.22631 0.269204 0.909729 0.269204 0.714466 0.464466C0.519204 0.659728 0.519204 0.97631 0.714466 1.17157L3.54289 4L0.714466 6.82843C0.519204 7.02369 0.519204 7.34027 0.714466 7.53553C0.909728 7.7308 1.22631 7.7308 1.42157 7.53553L4.60355 4.35355ZM4 4.5L4.25 4.5L4.25 3.5L4 3.5L4 4.5Z" fill="white"/>
</svg>
