<svg width="50" height="51" viewBox="0 0 50 51" fill="none" xmlns="http://www.w3.org/2000/svg">
<path d="M15.2308 14.64C14.4646 13.8737 13.1573 14.1539 12.7755 15.1718L0.0980032 48.9783C-0.351107 50.1758 0.821719 51.3519 2.02154 50.9018C3.71947 50.2651 34.4656 38.7353 35.8279 38.2244C36.8412 37.8446 37.13 36.5393 36.3598 35.7691L15.2308 14.64ZM14.7585 18.3936L20.8981 24.5332C21.3229 29.639 23.2144 34.5473 26.2986 38.6065L19.9074 41.0033C15.1268 36.0305 12.6871 29.078 13.3369 22.1844L14.7585 18.3936ZM10.7303 44.4447C9.25651 42.7707 8.03069 40.9052 7.0754 38.8818L10.6834 29.2603C11.5795 34.1816 13.7898 38.5839 16.89 42.1347L10.7303 44.4447ZM5.68215 42.5972C6.30726 43.6303 7.00149 44.6185 7.76127 45.5581L4.04996 46.9499L5.68215 42.5972ZM29.2353 37.5053C26.9946 34.7792 25.3863 31.5725 24.5234 28.1585L32.6062 36.2412L29.2353 37.5053Z" fill="#F1862F"/>
<path d="M34.7152 27.9053C35.2987 28.4888 36.2446 28.4888 36.8281 27.9053C42.4489 22.2845 47.922 24.0223 47.9767 24.0404C48.7595 24.3013 49.6056 23.8783 49.8665 23.0955C50.1276 22.3129 49.7044 21.4666 48.9216 21.2056C48.627 21.1075 41.6275 18.8802 34.7153 25.7925C34.1317 26.3758 34.1316 27.322 34.7152 27.9053Z" fill="#F1862F"/>
<path d="M23.0943 16.2843C23.6777 16.8678 24.6237 16.8679 25.2072 16.2843C32.1194 9.37217 29.8922 2.37267 29.794 2.07804C29.5331 1.29526 28.6869 0.872046 27.9042 1.13311C27.1214 1.39407 26.6984 2.24019 26.9592 3.02297C26.9775 3.07766 28.7151 8.55075 23.0943 14.1715C22.5109 14.7549 22.5109 15.701 23.0943 16.2843Z" fill="#F1862F"/>
<path d="M28.3768 19.4538C27.7933 20.0373 27.7933 20.9832 28.3768 21.5667C28.9549 22.1449 29.8943 22.1525 30.4808 21.5756C31.2527 21.191 33.6483 22.6335 34.9797 21.3026C36.2968 19.9854 34.8974 17.6385 35.2469 16.8159C36.0706 16.4655 38.4166 17.8656 39.7337 16.5486C41.051 15.2315 39.6516 12.8845 40.0011 12.0619C40.8259 11.7114 43.1707 13.1116 44.4877 11.7945C45.8051 10.4774 44.4056 8.13045 44.7551 7.30783C45.5751 6.95912 47.9257 8.35615 49.242 7.04039C50.5728 5.7094 49.133 3.30946 49.5148 2.54162C50.0895 1.95755 50.0864 1.01819 49.5059 0.437606C48.9225 -0.145869 47.9765 -0.145869 47.393 0.437606C46.2154 1.61521 46.4458 3.27769 46.6676 4.46625C45.4791 4.24444 43.8167 4.01405 42.6391 5.19156C41.4615 6.36917 41.6919 8.03164 41.9137 9.22021C40.7251 8.99849 39.0625 8.76791 37.885 9.94562C36.7074 11.1232 36.9379 12.7857 37.1597 13.9743C35.971 13.7524 34.3086 13.522 33.1311 14.6996C31.9535 15.8772 32.1838 17.5397 32.4057 18.7282C31.217 18.5066 29.5542 18.2762 28.3768 19.4538Z" fill="#F1862F"/>
<path d="M36.8281 6.77638C37.4116 6.1929 37.4116 5.24697 36.8281 4.6635C36.2446 4.08002 35.2987 4.08002 34.7152 4.6635C34.1317 5.24697 34.1317 6.1929 34.7152 6.77638C35.2986 7.35985 36.2446 7.35985 36.8281 6.77638Z" fill="#F1862F"/>
<path d="M46.3363 17.7785C47.1615 17.7785 47.8304 17.1096 47.8304 16.2844C47.8304 15.4593 47.1615 14.7904 46.3363 14.7904C45.5112 14.7904 44.8423 15.4593 44.8423 16.2844C44.8423 17.1096 45.5112 17.7785 46.3363 17.7785Z" fill="#F1862F"/>
<path d="M43.1671 30.0183C42.5836 30.6018 42.5836 31.5477 43.1671 32.1312C43.7506 32.7147 44.6965 32.7147 45.28 32.1312C45.8635 31.5477 45.8635 30.6018 45.28 30.0183C44.6966 29.4349 43.7506 29.4349 43.1671 30.0183Z" fill="#F1862F"/>
<path d="M22.0378 8.8892C22.6213 8.30573 22.6213 7.3598 22.0378 6.77632C21.4543 6.19285 20.5084 6.19285 19.9249 6.77632C19.3414 7.3597 19.3414 8.30573 19.9249 8.8892C20.5084 9.47268 21.4544 9.47268 22.0378 8.8892Z" fill="#F1862F"/>
</svg>
