<svg width="165" height="158" viewBox="0 0 165 158" fill="none" xmlns="http://www.w3.org/2000/svg">
<path d="M9.24597 88.6466C6.35711 87.4721 3.26749 86.8722 0.15 86.8798V63.8966H164.169V86.8785C161.034 86.8436 157.923 87.4231 155.01 88.585C152.051 89.7657 149.356 91.5241 147.083 93.7575C144.81 95.991 143.005 98.6548 141.772 101.593C140.54 104.532 139.905 107.687 139.905 110.873C139.905 114.06 140.54 117.215 141.772 120.153C143.005 123.092 144.81 125.756 147.083 127.989C149.356 130.223 152.051 131.981 155.01 133.162C157.923 134.324 161.034 134.903 164.169 134.868V157.85H0.15V134.872C3.26749 134.88 6.35711 134.28 9.24597 133.106C12.1816 131.912 14.8517 130.149 17.1022 127.918C19.3528 125.687 21.1391 123.033 22.3582 120.108C23.5773 117.183 24.205 114.045 24.205 110.876C24.205 107.707 23.5773 104.57 22.3582 101.645C21.1391 98.7196 19.3528 96.065 17.1022 93.834C14.8517 91.6031 12.1816 89.84 9.24597 88.6466Z" fill="#894040" stroke="black" stroke-width="0.3"/>
<path d="M153.991 21.0547L144.064 0L8.85889 63.7466H153.147C149.205 61.7005 145.914 58.5927 143.645 54.7743C141.376 50.956 140.22 46.5793 140.308 42.1387C140.396 37.698 141.724 33.3704 144.142 29.6447C146.559 25.9189 149.971 22.9436 153.991 21.0547Z" fill="#894040"/>
<path d="M119.283 72.6417C118.863 72.6415 118.448 72.724 118.06 72.8844C117.672 73.0449 117.32 73.2803 117.023 73.577C116.726 73.8737 116.491 74.2261 116.331 74.6138C116.17 75.0016 116.088 75.4172 116.088 75.8368V88.9202C116.088 89.7676 116.425 90.5803 117.024 91.1795C117.623 91.7787 118.436 92.1153 119.283 92.1153C120.13 92.1153 120.943 91.7787 121.542 91.1795C122.141 90.5803 122.478 89.7676 122.478 88.9202V75.8368C122.478 75.4172 122.396 75.0016 122.235 74.6138C122.075 74.2261 121.84 73.8737 121.543 73.577C121.246 73.2803 120.894 73.0449 120.506 72.8844C120.118 72.724 119.703 72.6415 119.283 72.6417Z" fill="#F1862F"/>
<path d="M90.2091 82.8313H39.7102C38.8628 82.8313 38.0502 83.1679 37.451 83.7671C36.8518 84.3663 36.5151 85.179 36.5151 86.0264C36.5151 86.8738 36.8518 87.6865 37.451 88.2857C38.0502 88.8849 38.8628 89.2215 39.7102 89.2215H90.2091C91.0565 89.2215 91.8692 88.8849 92.4684 88.2857C93.0676 87.6865 93.4042 86.8738 93.4042 86.0264C93.4042 85.179 93.0676 84.3663 92.4684 83.7671C91.8692 83.1679 91.0565 82.8313 90.2091 82.8313Z" fill="#F1862F"/>
<path d="M90.2091 107.676H39.7102C38.8628 107.676 38.0502 108.013 37.451 108.612C36.8518 109.211 36.5151 110.024 36.5151 110.871C36.5151 111.719 36.8518 112.531 37.451 113.131C38.0502 113.73 38.8628 114.067 39.7102 114.067H90.2091C91.0565 114.067 91.8692 113.73 92.4684 113.131C93.0676 112.531 93.4042 111.719 93.4042 110.871C93.4042 110.024 93.0676 109.211 92.4684 108.612C91.8692 108.013 91.0565 107.676 90.2091 107.676Z" fill="#F1862F"/>
<path d="M90.2091 132.516H39.7102C38.8628 132.516 38.0502 132.853 37.451 133.452C36.8518 134.051 36.5151 134.864 36.5151 135.711C36.5151 136.558 36.8518 137.371 37.451 137.97C38.0502 138.569 38.8628 138.906 39.7102 138.906H90.2091C91.0565 138.906 91.8692 138.569 92.4684 137.97C93.0676 137.371 93.4042 136.558 93.4042 135.711C93.4042 134.864 93.0676 134.051 92.4684 133.452C91.8692 132.853 91.0565 132.516 90.2091 132.516Z" fill="#F1862F"/>
<path d="M119.283 101.133C118.436 101.133 117.623 101.469 117.024 102.069C116.425 102.668 116.088 103.481 116.088 104.328V117.413C116.088 118.261 116.425 119.073 117.024 119.672C117.623 120.272 118.436 120.608 119.283 120.608C120.13 120.608 120.943 120.272 121.542 119.672C122.141 119.073 122.478 118.261 122.478 117.413V104.328C122.478 103.481 122.141 102.668 121.542 102.069C120.943 101.469 120.13 101.133 119.283 101.133Z" fill="#F1862F"/>
<path d="M119.283 129.626C118.436 129.626 117.623 129.962 117.024 130.562C116.425 131.161 116.088 131.973 116.088 132.821V145.904C116.088 146.752 116.425 147.564 117.024 148.164C117.623 148.763 118.436 149.099 119.283 149.099C120.13 149.099 120.943 148.763 121.542 148.164C122.141 147.564 122.478 146.752 122.478 145.904V132.821C122.478 131.973 122.141 131.161 121.542 130.562C120.943 129.962 120.13 129.626 119.283 129.626Z" fill="#F1862F"/>
</svg>
