<svg width="231" height="158" viewBox="0 0 231 158" fill="none" xmlns="http://www.w3.org/2000/svg">
<g id="Group 918">
<path id="Vector" d="M33.6353 100.393L41.2846 158H74.8685L67.2192 100.393L50.4074 95.2838L33.6353 100.393Z" fill="#894040"/>
<path id="Vector_2" d="M150.704 72.0105L144.021 129.619C134.799 120.397 123.318 113.196 110.878 108.299C98.4428 103.407 85.0534 100.815 72.0105 100.815L66.2451 72.0105L72.0105 43.2063C98.0918 43.2063 125.577 32.8458 144.021 14.4021L150.704 72.0105Z" fill="#894040"/>
<path id="Vector_3" d="M150.704 72.0105L144.021 129.619C134.799 120.397 123.318 113.196 110.878 108.299C98.4428 103.407 85.0534 100.815 72.0105 100.815L66.2451 72.0105H150.704Z" fill="#894040"/>
<path id="Vector_4" d="M35.4562 72.0105L28.8042 100.815C12.8944 100.815 0 87.9203 0 72.0105C0 56.1007 12.8944 43.2063 28.8042 43.2063L35.4562 72.0105Z" fill="#894040"/>
<path id="Vector_5" d="M35.4562 72.0105L28.8042 100.815C12.8944 100.815 0 87.9203 0 72.0105H35.4562Z" fill="#894040"/>
<path id="Vector_6" d="M201.629 72.0105C201.629 77.9784 199.213 83.3792 195.302 87.2857C191.395 91.1968 185.994 93.6136 180.026 93.6136H166.443V50.4073H180.026C191.958 50.4073 201.629 60.0793 201.629 72.0105Z" fill="#894040"/>
<path id="Vector_7" d="M201.629 72.0105C201.629 77.9784 199.213 83.3792 195.302 87.2857C191.395 91.1968 185.994 93.6136 180.026 93.6136H166.443V72.0105H201.629Z" fill="#894040"/>
<path id="Vector_8" d="M144.021 0H172.825V144.021H144.021V0Z" fill="#F1862F"/>
<path id="Vector_9" d="M29 43H72V101H29V43Z" fill="#F1862F"/>
<path id="Vector_10" d="M144.021 72.0105H172.825V144.021H144.021V72.0105Z" fill="#F1862F"/>
<path id="Vector_11" d="M211.994 65.2595H230.434V78.7615H211.994V65.2595Z" fill="#894040"/>
<path id="Vector_12" d="M211.994 72.0105H230.434V78.7615H211.994V72.0105Z" fill="#894040"/>
<path id="Vector_13" d="M200.891 46.6524L213.927 33.6163L223.473 43.1621L210.437 56.1983L200.891 46.6524Z" fill="#894040"/>
<path id="Vector_14" d="M200.885 97.3891L210.43 87.8432L223.467 100.879L213.921 110.425L200.885 97.3891Z" fill="#894040"/>
</g>
</svg>
