<svg width="22" height="19" viewBox="0 0 22 19" fill="none" xmlns="http://www.w3.org/2000/svg">
<path id="primary" d="M15.9482 0C14.9522 0.0148981 13.9764 0.258774 13.1114 0.709012C12.2924 1.13531 11.5978 1.73353 11.0847 2.45315C11.0435 2.511 10.9565 2.511 10.9153 2.45315C10.4022 1.73353 9.7076 1.13531 8.88859 0.709012C8.02359 0.258774 7.04784 0.0148981 6.05184 0C4.37949 0.0779614 2.80787 0.752246 1.67634 1.87726C0.544809 3.00227 -0.0558392 4.48774 0.00408987 6.01292C0.00408987 14.7818 10.1423 18.7603 10.5712 18.9206C10.7068 18.973 10.8527 19 11 19C11.1473 19 11.2932 18.973 11.4288 18.9206C11.8577 18.8004 21.9959 14.8218 21.9959 6.01292C22.0558 4.48774 21.4552 3.00227 20.3237 1.87726C19.1921 0.752246 17.6205 0.0779614 15.9482 0Z" fill="#F1862F"/>
</svg>
