<svg width="178" height="158" viewBox="0 0 178 158" fill="none" xmlns="http://www.w3.org/2000/svg">
<path d="M83.4281 14.615C74.1975 5.38444 61.925 0.301208 48.8711 0.301208C35.8173 0.301208 23.5444 5.38444 14.3142 14.615C5.08358 23.8456 0 36.1182 0 49.172C0 62.2258 5.08358 74.4984 14.3142 83.729L88.7356 158L99.4057 84.2215L88.7356 19.7721L83.4281 14.615Z" fill="#F1862F"/>
<path d="M163.157 14.3138C153.927 5.08427 141.654 0 128.6 0C115.547 0 103.274 5.08358 94.0434 14.3138L88.7356 19.7721V158L163.157 83.4278C172.388 74.1972 177.471 61.9246 177.471 48.8708C177.471 35.817 172.388 23.5444 163.157 14.3138Z" fill="#894040"/>
<path d="M106.535 122.532C106.535 142.089 122.446 158 142.003 158L144.876 122.943L142.003 87.0642C122.446 87.0642 106.535 102.975 106.535 122.532Z" fill="#F1862F"/>
<path d="M142.003 87.0642V158C161.561 158 177.471 142.089 177.471 122.532C177.471 102.975 161.56 87.0642 142.003 87.0642Z" fill="#894040"/>
<path d="M136.804 106.501V117.333H125.972V127.731H136.804V138.563H142.003L145.98 123.043L142.003 106.501H136.804Z" fill="#F5F8FF"/>
<path d="M147.203 117.333V106.501H142.003V138.563H147.203V127.731H158.034V117.333H147.203Z" fill="#DFE8FF"/>
</svg>
