<svg width="24" height="21" viewBox="0 0 24 21" fill="none" xmlns="http://www.w3.org/2000/svg">
<path id="primary" d="M16.9482 1C15.9522 1.0149 14.9764 1.25877 14.1114 1.70901C13.2924 2.13531 12.5978 2.73353 12.0847 3.45315C12.0435 3.511 11.9565 3.511 11.9153 3.45315C11.4022 2.73353 10.7076 2.13531 9.88859 1.70901C9.02359 1.25877 8.04784 1.0149 7.05184 1C5.37949 1.07796 3.80787 1.75225 2.67634 2.87726C1.54481 4.00227 0.944161 5.48774 1.00409 7.01292C1.00409 15.7818 11.1423 19.7603 11.5712 19.9206C11.7068 19.973 11.8527 20 12 20C12.1473 20 12.2932 19.973 12.4288 19.9206C12.8577 19.8004 22.9959 15.8218 22.9959 7.01292C23.0558 5.48774 22.4552 4.00227 21.3237 2.87726C20.1921 1.75225 18.6205 1.07796 16.9482 1Z" stroke="white" stroke-width="2"/>
</svg>
