<svg width="22" height="22" viewBox="0 0 22 22" fill="none" xmlns="http://www.w3.org/2000/svg">
<g id="Group">
<path id="Vector" d="M10.9995 13.7446C9.48074 13.7446 8.24951 14.9766 8.24951 16.4963V21.9998H13.7495V16.4963C13.7495 14.9766 12.5183 13.7446 10.9995 13.7446Z" fill="#F1862F"/>
<g id="Group_2">
<path id="Vector_2" d="M15.5829 16.4966V22H19.2495C20.7683 22 21.9995 20.768 21.9995 19.2483V10.8822C21.9997 10.4057 21.8147 9.94775 21.4834 9.60538L13.6936 1.17869C12.3191 -0.309387 9.99933 -0.400753 8.51218 0.974588C8.44154 1.03994 8.37348 1.108 8.30821 1.17869L0.532109 9.60263C0.190852 9.94642 -0.000617122 10.4114 -0.000488216 10.8959V19.2483C-0.000488216 20.768 1.23074 22 2.74951 22H6.41616V16.4966C6.43331 13.9954 8.45142 11.953 10.8881 11.8942C13.4062 11.8334 15.5637 13.9106 15.5829 16.4966Z" fill="#F1862F"/>
<path id="Vector_3" d="M10.9995 13.7446C9.48074 13.7446 8.24951 14.9766 8.24951 16.4963V21.9998H13.7495V16.4963C13.7495 14.9766 12.5183 13.7446 10.9995 13.7446Z" fill="#F1862F"/>
</g>
</g>
</svg>
