<svg width="145" height="51" viewBox="0 0 145 51" fill="none" xmlns="http://www.w3.org/2000/svg">
<path d="M20.9282 32.1013C20.5731 31.8397 20.1932 31.8234 19.8349 32.072C19.5991 32.2548 19.3773 32.455 19.1716 32.6711C18.1717 33.6674 17.1751 34.6756 16.1665 35.6676H18.8806C19.5515 35.0012 20.1758 34.3804 20.7968 33.752C20.9694 33.574 21.1594 33.3765 21.231 33.1529C21.3754 32.7525 21.2951 32.3683 20.9282 32.1013ZM20.9282 32.1013C20.5731 31.8397 20.1932 31.8234 19.8349 32.072C19.5991 32.2548 19.3773 32.455 19.1716 32.6711C18.1717 33.6674 17.1751 34.6756 16.1665 35.6676H18.8806C19.5515 35.0012 20.1758 34.3804 20.7968 33.752C20.9694 33.574 21.1594 33.3765 21.231 33.1529C21.3754 32.7525 21.2951 32.3683 20.9282 32.1013ZM27.4833 31.5282C24.4869 28.527 21.4883 25.5291 18.4876 22.5344C17.6777 21.7247 17.2847 21.7247 16.4781 22.5268C12.0964 26.9027 7.71762 31.283 3.34173 35.6676H6.21218L17.4953 24.3837C20.1725 27.0557 22.9073 29.7939 25.6768 32.5582C25.6431 32.5962 25.5584 32.7058 25.4662 32.7991C24.5119 33.7564 23.5576 34.7147 22.5957 35.6643H25.3098L27.4811 33.4937C28.265 32.7101 28.2693 32.3053 27.4833 31.525V31.5282ZM20.9282 32.1013C20.5731 31.8397 20.1932 31.8234 19.8349 32.072C19.5991 32.2548 19.3773 32.455 19.1716 32.6711C18.1717 33.6674 17.1751 34.6756 16.1665 35.6676H18.8806C19.5515 35.0012 20.1758 34.3804 20.7968 33.752C20.9694 33.574 21.1594 33.3765 21.231 33.1529C21.3754 32.7525 21.2951 32.3683 20.9282 32.1013ZM35.96 27.4345C34.7296 26.1944 33.4927 24.9564 32.2493 23.7206C31.4817 22.9609 31.1778 22.9359 30.3201 23.624C29.9889 23.8949 29.598 24.0832 29.1798 24.1734C28.7615 24.2636 28.3277 24.2531 27.9143 24.1428C25.9048 23.6576 25.1112 21.2689 26.3944 19.6442C27.036 18.8335 27.023 18.5003 26.301 17.7829C25.067 16.5406 23.8319 15.3016 22.5957 14.0658C21.1702 12.644 19.5418 12.644 18.1163 14.0701C13.0637 19.1182 8.01364 24.1656 2.96609 29.2122C2.82966 29.3435 2.70773 29.489 2.6024 29.6463C2.48961 29.8229 2.43985 30.0324 2.46119 30.2409C2.48253 30.4493 2.57373 30.6444 2.71997 30.7945C2.8662 30.9446 3.0589 31.0409 3.26676 31.0677C3.47463 31.0945 3.68546 31.0503 3.86501 30.9422C4.04651 30.8194 4.21462 30.6779 4.36658 30.52C9.40761 25.4849 14.4468 20.4491 19.4842 15.4126C20.1302 14.7669 20.5818 14.7614 21.2213 15.3953C22.2678 16.4382 23.3111 17.4931 24.3697 18.5307C24.5759 18.7336 24.5976 18.8769 24.45 19.1298C23.8814 20.1074 23.702 21.2633 23.9473 22.3672C24.5803 25.4603 28.0728 27.0677 30.8445 25.5526C31.1148 25.405 31.2668 25.418 31.4828 25.6372C32.487 26.6628 33.5086 27.6711 34.5226 28.6891C35.2533 29.4184 35.2576 29.8319 34.5357 30.5536C32.8345 32.2543 31.1202 33.943 29.4407 35.6643H32.1288C33.4316 34.362 34.6996 33.103 35.9622 31.8408C37.3464 30.4527 37.3464 28.8193 35.96 27.4345Z" fill="#F1862F"/>
<path d="M27.4829 31.525C24.4865 28.5238 21.4879 25.5258 18.4872 22.5311C17.6773 21.7215 17.2843 21.7215 16.4777 22.5235C12.096 26.8995 7.7172 31.2797 3.34131 35.6643H6.21176L17.4949 24.3837C20.1721 27.0557 22.9069 29.794 25.6764 32.5582C25.6427 32.5962 25.558 32.7058 25.4657 32.7991C24.5115 33.7564 23.5572 34.7147 22.5953 35.6643H25.3094L27.4807 33.4937C28.2645 32.7102 28.2689 32.3053 27.4829 31.525Z" fill="#F1862F"/>
<path d="M36.9956 36.0865H0V36.5006H36.9956V36.0865Z" fill="#F1862F"/>
<path d="M1.50295 31.9352C1.38461 32.4073 1.59307 32.6287 2.05993 32.6483L2.04147 32.6906L1.78633 32.848C1.60718 32.9565 1.5757 33.0411 1.62455 33.2495C1.65044 33.3517 1.67002 33.4553 1.68318 33.5599C1.32924 33.2593 1.03175 33.2918 0.78203 33.6891C0.742943 33.485 0.759229 33.2745 0.663685 33.1464C0.568141 33.0184 0.364025 32.9923 0.210938 32.9228C0.335796 32.8143 0.529055 32.7297 0.58877 32.5864C0.648485 32.4431 0.571399 32.2478 0.552941 32.0589C0.641971 32.1034 0.7386 32.1469 0.82763 32.2022C0.888321 32.2471 0.964219 32.2663 1.03896 32.2557C1.1137 32.2452 1.1813 32.2057 1.22718 32.1458C1.29884 32.072 1.37592 32.0036 1.44432 31.9287L1.50295 31.9352Z" fill="#F1862F"/>
<path d="M75.67 12.928L70.162 37H60.778L57.99 23.332L55.202 37H45.818L40.31 12.928H48.436L50.612 28.092L53.876 12.928H62.104L65.368 28.092L67.544 12.928H75.67ZM77.3568 27.412C77.3568 25.3947 77.6968 23.6493 78.3768 22.176C79.0794 20.68 80.0314 19.5467 81.2328 18.776C82.4341 17.9827 83.7828 17.586 85.2788 17.586C86.5254 17.586 87.6021 17.8467 88.5088 18.368C89.4154 18.8667 90.1068 19.558 90.5828 20.442V17.824H98.0968V37H90.5828V34.382C90.1068 35.266 89.4154 35.9687 88.5088 36.49C87.6021 36.9887 86.5254 37.238 85.2788 37.238C83.7828 37.238 82.4341 36.8527 81.2328 36.082C80.0314 35.2887 79.0794 34.1553 78.3768 32.682C77.6968 31.186 77.3568 29.4293 77.3568 27.412ZM90.5828 27.412C90.5828 26.392 90.3221 25.5987 89.8008 25.032C89.2794 24.4653 88.6108 24.182 87.7948 24.182C86.9788 24.182 86.3101 24.4653 85.7888 25.032C85.2674 25.5987 85.0068 26.392 85.0068 27.412C85.0068 28.432 85.2674 29.2253 85.7888 29.792C86.3101 30.3587 86.9788 30.642 87.7948 30.642C88.6108 30.642 89.2794 30.3587 89.8008 29.792C90.3221 29.2253 90.5828 28.432 90.5828 27.412ZM123.144 17.824L110.87 46.18H102.608L107.436 36.048L99.4461 17.824H107.844L111.448 27.548L114.814 17.824H123.144ZM128.304 16.294C126.989 16.294 125.935 15.9427 125.142 15.24C124.349 14.5373 123.952 13.6533 123.952 12.588C123.952 11.5 124.349 10.6047 125.142 9.902C125.935 9.17666 126.989 8.814 128.304 8.814C129.596 8.814 130.639 9.17666 131.432 9.902C132.225 10.6047 132.622 11.5 132.622 12.588C132.622 13.6533 132.225 14.5373 131.432 15.24C130.639 15.9427 129.596 16.294 128.304 16.294ZM132.044 17.824V37H124.496V17.824H132.044ZM139.261 16.294C137.946 16.294 136.892 15.9427 136.099 15.24C135.306 14.5373 134.909 13.6533 134.909 12.588C134.909 11.5 135.306 10.6047 136.099 9.902C136.892 9.17666 137.946 8.814 139.261 8.814C140.553 8.814 141.596 9.17666 142.389 9.902C143.182 10.6047 143.579 11.5 143.579 12.588C143.579 13.6533 143.182 14.5373 142.389 15.24C141.596 15.9427 140.553 16.294 139.261 16.294ZM143.001 17.824V37H135.453V17.824H143.001Z" fill="#F1862F"/>
</svg>
