<svg width="215" height="203" viewBox="0 0 215 203" fill="none" xmlns="http://www.w3.org/2000/svg">
<g id="Group 228">
<path id="Vector" d="M73.2417 143.4L61.6593 183.705H41.9263L36.0657 160.822L30.1988 183.705H10.4658L0 136.533L14.5096 135.335L20.5405 168.793L27.4041 143.4H44.7147L51.5783 168.793L56.1457 143.4H73.2417Z" fill="white"/>
<path id="Vector_2" d="M78.9949 152.512C80.2674 149.614 82.3369 147.136 84.9627 145.367C87.4927 143.722 90.4545 142.864 93.4729 142.902C95.8389 142.839 98.1804 143.394 100.267 144.51C102.117 145.528 103.631 147.062 104.626 148.924V143.419H120.429V183.724H104.626V178.226C103.63 180.086 102.116 181.619 100.267 182.639C98.1804 183.756 95.8389 184.31 93.4729 184.247C90.455 184.283 87.494 183.425 84.9627 181.782C82.3353 180.012 80.2655 177.532 78.9949 174.631C76.0855 167.562 76.0855 159.631 78.9949 152.562V152.512ZM102.967 158.552C102.42 157.988 101.764 157.539 101.04 157.232C100.315 156.926 99.5366 156.768 98.7499 156.768C97.9633 156.768 97.1846 156.926 96.4601 157.232C95.7357 157.539 95.0803 157.988 94.5327 158.552C93.435 159.746 92.8862 161.413 92.8862 163.553C92.8862 165.692 93.435 167.361 94.5327 168.559C95.0803 169.124 95.7357 169.573 96.4601 169.879C97.1846 170.186 97.9633 170.344 98.7499 170.344C99.5366 170.344 100.315 170.186 101.04 169.879C101.764 169.573 102.42 169.124 102.967 168.559C104.065 167.37 104.614 165.701 104.614 163.553C104.614 161.404 104.069 159.738 102.98 158.552H102.967Z" fill="white"/>
<path id="Vector_3" d="M173.118 143.4L147.31 203H129.955L140.105 181.706L123.306 143.4H140.969L148.54 163.843L155.618 143.4H173.118Z" fill="white"/>
<path id="Vector_4" d="M191.854 143.4V183.705H176.007V143.4H191.854Z" fill="white"/>
<path id="Vector_5" d="M214.874 135.335V183.705H199.002V135.335H214.874Z" fill="white"/>
<path id="Vector_6" d="M121.609 110.977C119.546 109.458 117.338 109.363 115.256 110.807C113.886 111.869 112.598 113.032 111.402 114.288C105.592 120.076 99.8005 125.934 93.9399 131.697H109.711C113.61 127.826 117.237 124.219 120.846 120.568C121.849 119.534 122.953 118.386 123.369 117.087C124.208 114.761 123.741 112.528 121.609 110.977ZM121.609 110.977C119.546 109.458 117.338 109.363 115.256 110.807C113.886 111.869 112.598 113.032 111.402 114.288C105.592 120.076 99.8005 125.934 93.9399 131.697H109.711C113.61 127.826 117.237 124.219 120.846 120.568C121.849 119.534 122.953 118.386 123.369 117.087C124.208 114.761 123.741 112.528 121.609 110.977ZM159.7 107.648C142.288 90.211 124.864 72.7931 107.427 55.394C102.721 50.6901 100.438 50.6901 95.7505 55.3499C70.2894 80.7737 44.8451 106.223 19.4176 131.697H36.0973L101.662 66.1386C117.218 81.6628 133.109 97.5717 149.202 113.632C149.007 113.853 148.515 114.489 147.979 115.032C142.433 120.593 136.888 126.161 131.299 131.678H147.07L159.687 119.067C164.242 114.515 164.267 112.163 159.7 107.629V107.648ZM121.609 110.977C119.546 109.458 117.338 109.363 115.256 110.807C113.886 111.869 112.598 113.032 111.402 114.288C105.592 120.076 99.8005 125.934 93.9399 131.697H109.711C113.61 127.826 117.237 124.219 120.846 120.568C121.849 119.534 122.953 118.386 123.369 117.087C124.208 114.761 123.741 112.528 121.609 110.977ZM208.957 83.8634C201.807 76.6583 194.619 69.4658 187.394 62.286C182.934 57.8721 181.168 57.7271 176.184 61.7248C174.259 63.2985 171.988 64.3924 169.558 64.9165C167.127 65.4405 164.607 65.3796 162.204 64.7388C150.527 61.9202 145.916 48.0418 153.372 38.6024C157.101 33.8922 157.025 31.9564 152.83 27.7884C145.659 20.5707 138.482 13.3719 131.299 6.19203C123.016 -2.06821 113.553 -2.06821 105.27 6.21725C75.9102 35.5463 46.5652 64.8712 17.2349 94.1919C16.4421 94.9546 15.7336 95.8001 15.1215 96.7141C14.4661 97.7401 14.177 98.9574 14.301 100.168C14.425 101.379 14.9549 102.513 15.8047 103.385C16.6544 104.257 17.7741 104.816 18.982 104.972C20.1899 105.128 21.4149 104.871 22.4583 104.243C23.5129 103.529 24.4898 102.707 25.3728 101.79C54.6653 72.5366 83.9473 43.279 113.219 14.0172C116.972 10.2654 119.597 10.2339 123.312 13.9163C129.394 19.9759 135.456 26.1049 141.607 32.1329C142.806 33.3121 142.932 34.1444 142.074 35.6136C138.77 41.2938 137.727 48.0091 139.153 54.423C142.831 72.3937 163.125 81.7322 179.231 72.9297C180.802 72.0721 181.685 72.1478 182.94 73.4215C188.776 79.3802 194.712 85.2381 200.604 91.1526C204.85 95.3899 204.875 97.7924 200.68 101.986C190.794 111.866 180.833 121.678 171.074 131.678H186.694C194.264 124.112 201.632 116.797 208.969 109.464C217.012 101.399 217.012 91.9093 208.957 83.8634Z" fill="white"/>
<path id="Vector_7" d="M159.699 107.629C142.288 90.192 124.864 72.7741 107.427 55.375C102.721 50.6711 100.437 50.6711 95.7499 55.3309C70.2888 80.7548 44.8445 106.204 19.4171 131.678H36.0967L101.661 66.1386C117.218 81.6628 133.109 97.5716 149.202 113.632C149.006 113.852 148.514 114.489 147.978 115.032C142.433 120.593 136.888 126.161 131.298 131.678H147.07L159.687 119.067C164.241 114.515 164.267 112.163 159.699 107.629Z" fill="white"/>
<path id="Vector_8" d="M214.975 134.131H0V136.534H214.975V134.131Z" fill="white"/>
<path id="Vector_9" d="M8.73165 110.012C8.04398 112.755 9.2553 114.042 11.9681 114.155L11.8609 114.401L10.3783 115.315C9.33731 115.946 9.15435 116.438 9.43826 117.648C9.58871 118.242 9.70248 118.844 9.77894 119.452C7.72222 117.705 5.99357 117.894 4.54251 120.202C4.31539 119.017 4.41002 117.793 3.85483 117.049C3.29964 116.305 2.11356 116.154 1.224 115.75C1.94953 115.12 3.07252 114.628 3.41951 113.796C3.76651 112.963 3.31857 111.828 3.21132 110.731C3.72865 110.99 4.29015 111.242 4.80748 111.564C5.16015 111.824 5.60118 111.936 6.03548 111.875C6.46979 111.813 6.86259 111.584 7.12918 111.236C7.54557 110.807 7.99351 110.41 8.39097 109.975L8.73165 110.012Z" fill="white"/>
</g>
</svg>
