<svg width="34" height="38" viewBox="0 0 34 38" fill="none" xmlns="http://www.w3.org/2000/svg">
<path id="primary" d="M30.8375 23.4956C31.2065 23.8678 31.4991 24.3096 31.6986 24.7957C31.898 25.2819 32.0005 25.8028 32 26.3289C32 27.3909 31.5812 28.4095 30.8358 29.1605C30.0903 29.9114 29.0792 30.3333 28.025 30.3333H5.975C4.92077 30.3333 3.90971 29.9114 3.16425 29.1605C2.41879 28.4095 2 27.3909 2 26.3289C1.99954 25.8028 2.10197 25.2819 2.30144 24.7957C2.5009 24.3096 2.7935 23.8678 3.1625 23.4956L5.75 20.8889V13.3333C5.75 10.3275 6.93527 7.44487 9.04505 5.31946C11.1548 3.19404 14.0163 2 17 2C19.9837 2 22.8452 3.19404 24.955 5.31946C27.0647 7.44487 28.25 10.3275 28.25 13.3333V20.8889L30.8375 23.4956ZM22.625 30.3333H11.375C11.375 31.8362 11.9676 33.2776 13.0225 34.3403C14.0774 35.403 15.5082 36 17 36C18.4918 36 19.9226 35.403 20.9775 34.3403C22.0324 33.2776 22.625 31.8362 22.625 30.3333Z" stroke="#F1862F" stroke-width="3" stroke-linecap="round" stroke-linejoin="round"/>
</svg>
