<svg width="18" height="18" viewBox="0 0 18 18" fill="none" xmlns="http://www.w3.org/2000/svg">
<path id="primary" opacity="0.5" d="M17 17L13.1422 13.1422M15.2222 8.11111C15.2222 9.51756 14.8052 10.8924 14.0238 12.0618C13.2424 13.2312 12.1318 14.1427 10.8324 14.6809C9.53303 15.2191 8.10322 15.36 6.7238 15.0856C5.34438 14.8112 4.07731 14.1339 3.0828 13.1394C2.08829 12.1449 1.41102 10.8778 1.13664 9.49842C0.862257 8.119 1.00308 6.68919 1.5413 5.38981C2.07953 4.09042 2.99098 2.97982 4.16039 2.19844C5.32981 1.41706 6.70467 1 8.11111 1C9.9971 1 11.8058 1.7492 13.1394 3.0828C14.473 4.41639 15.2222 6.22513 15.2222 8.11111Z" stroke="white" stroke-linecap="round" stroke-linejoin="round"/>
</svg>
