<svg width="20" height="20" viewBox="0 0 20 20" fill="none" xmlns="http://www.w3.org/2000/svg">
<path d="M10 19C14.9706 19 19 14.9706 19 10C19 5.02944 14.9706 1 10 1C5.02944 1 1 5.02944 1 10C1 14.9706 5.02944 19 10 19Z" stroke="white" stroke-width="2" stroke-linecap="round" stroke-linejoin="round"/>
<path d="M9.78012 1.10986C10.5998 1.62675 11.3032 2.30818 11.8458 3.11103C12.3885 3.91388 12.7585 4.82065 12.9325 5.77392C13.1065 6.7272 13.0807 7.70622 12.8567 8.64901C12.6327 9.59179 12.2154 10.4778 11.6312 11.2509C11.047 12.0241 10.3087 12.6675 9.46289 13.1405C8.61713 13.6134 7.68237 13.9056 6.71781 13.9986C5.75325 14.0916 4.7799 13.9832 3.85938 13.6805C2.93885 13.3778 2.09121 12.8872 1.37012 12.2399" stroke="white" stroke-width="2" stroke-linecap="round" stroke-linejoin="round"/>
</svg>
