<svg width="26" height="20" viewBox="0 0 26 20" fill="none" xmlns="http://www.w3.org/2000/svg">
<g id="Tickets">
<path id="Tickets on" d="M22.022 8.675C22.2028 8.50075 22.4176 8.36249 22.6541 8.26812C22.8905 8.17375 23.144 8.12511 23.4 8.125H25.025C25.558 8.125 26 7.69999 26 7.1875V2.1875C26 0.987484 24.973 0 23.725 0L13 0V3.75C13 4.43752 12.415 5 11.7 5C10.9849 5 10.4 4.43752 10.4 3.75V0L2.27501 0C1.02698 0 0 0.987484 0 2.1875L0 7.13752C0 7.66249 0.481011 8.125 1.02699 8.125H2.39201C3.50998 8.125 4.48499 8.91249 4.55001 9.87501C4.57603 10.425 4.38102 10.9375 3.97801 11.325C3.79717 11.4992 3.58239 11.6375 3.34594 11.7319C3.10949 11.8263 2.85602 11.8749 2.60001 11.875H0.975002C0.442008 11.875 0 12.3 0 12.8125L0 17.8125C0 19.0125 1.02698 20 2.27501 20H10.4V16.25C10.4 15.5625 10.9849 15 11.7 15C12.415 15 13 15.5625 13 16.25V20H23.725C24.973 20 26 19.0125 26 17.8125V12.8125C26 12.3 25.558 11.875 25.025 11.875H23.569C22.477 11.875 21.528 11.1 21.45 10.15V10.0125C21.45 9.49999 21.645 9.03748 22.022 8.675ZM13 11.25C13 11.9375 12.415 12.5 11.7 12.5C10.9849 12.5 10.4 11.9375 10.4 11.25V8.75C10.4 8.06248 10.9849 7.5 11.7 7.5C12.415 7.5 13 8.06248 13 8.75V11.25Z" fill="#F1862F"/>
</g>
</svg>
