<svg width="26" height="20" viewBox="0 0 26 20" fill="none" xmlns="http://www.w3.org/2000/svg">
<g id="Tickets">
<path id="Vector" d="M22.7449 8.13255H24.3065C24.8276 8.13255 25.25 7.71022 25.25 7.18928V2.1925C25.25 0.983539 24.2663 0 23.0572 0H2.44283C1.23366 0 0.25 0.983539 0.25 2.1925V7.18928C0.25 7.71022 0.672387 8.13255 1.19345 8.13255H2.75515C3.78498 8.13255 4.62277 8.97029 4.62277 10C4.62277 10.4972 4.42806 10.9658 4.07475 11.3191C3.72097 11.6727 3.25234 11.8674 2.75515 11.8674H1.19345C0.672387 11.8674 0.25 12.2898 0.25 12.8107V17.8075C0.25 19.0165 1.23366 20 2.44283 20H23.0572C24.2663 20 25.25 19.0165 25.25 17.8075V12.8107C25.25 12.2898 24.8276 11.8674 24.3065 11.8674H22.7449C21.715 11.8674 20.8772 11.0297 20.8772 10C20.8772 9.50287 21.0719 9.0343 21.4254 8.68074C21.7791 8.32724 22.2477 8.13255 22.7449 8.13255ZM22.7449 13.754H23.3632V17.8075C23.3632 17.9733 23.2231 18.1134 23.0572 18.1134H12.1253V15.5592C12.1253 15.0419 11.7056 14.6222 11.1883 14.6222C10.671 14.6222 10.2513 15.0419 10.2513 15.5592V18.1134H2.44283C2.27694 18.1134 2.13685 17.9733 2.13685 17.8075V13.754H2.75515C3.75617 13.754 4.6986 13.3631 5.40889 12.6531C6.11863 11.9433 6.50961 11.001 6.50961 10C6.50961 7.93004 4.82537 6.246 2.75515 6.246H2.13685V2.1925C2.13685 2.02669 2.27694 1.88655 2.44283 1.88655H10.2513V4.44142C10.2513 4.95868 10.671 5.37831 11.1883 5.37831C11.7056 5.37831 12.1253 4.95868 12.1253 4.44142V1.88655H23.0572C23.2231 1.88655 23.3632 2.02669 23.3632 2.1925V6.246H22.7449C21.7438 6.246 20.8014 6.63693 20.0914 7.34665L20.0912 7.34683C19.3814 8.05673 18.9904 8.99898 18.9904 10C18.9904 12.07 20.6746 13.754 22.7449 13.754Z" fill="white"/>
<path id="Vector_2" d="M11.1887 7.4765C10.6712 7.4765 10.2513 7.89612 10.2513 8.41339V11.5864C10.2513 12.1037 10.6712 12.5239 11.1887 12.5239C11.7062 12.5239 12.1261 12.1037 12.1261 11.5864V8.41339C12.1261 7.89612 11.7062 7.4765 11.1887 7.4765Z" fill="white"/>
</g>
</svg>
