<svg width="22" height="22" viewBox="0 0 22 22" fill="none" xmlns="http://www.w3.org/2000/svg">
<g id="User">
<g id="Group 823">
<path id="Vector" d="M21.9968 10.7338C21.8526 4.75091 16.9576 0 11.0055 0C10.9153 0 10.824 0.00105618 10.7338 0.00327414C4.66071 0.149554 -0.144087 5.19313 0.00330223 11.2662C0.0747524 14.223 1.309 16.8751 3.25489 18.8056C3.25384 18.8089 3.25384 18.8111 3.25268 18.8144C3.27359 18.8342 3.29672 18.8518 3.31763 18.8716C3.36378 18.9167 3.41438 18.9552 3.46058 18.9992C3.65418 19.1796 3.84778 19.3611 4.05352 19.5272L4.07332 19.5437C4.91583 20.227 5.85475 20.7819 6.85962 21.1904C6.91792 21.2135 6.97844 21.2311 7.03674 21.2542C7.26001 21.34 7.48334 21.4258 7.71322 21.4973C7.72747 21.5017 7.74068 21.5072 7.75504 21.5116C7.79132 21.5226 7.8276 21.5314 7.86393 21.5424C7.99595 21.582 8.13231 21.6106 8.26649 21.6447C8.33583 21.6623 8.40512 21.6799 8.4744 21.6964C8.58662 21.7228 8.69551 21.758 8.80884 21.7811C8.84184 21.7877 8.87591 21.791 8.90891 21.7976C9.07061 21.8284 9.23453 21.8471 9.39845 21.8713C9.56231 21.8955 9.7229 21.9285 9.88904 21.945C9.92532 21.9483 9.96271 21.9472 9.99904 21.9505C10.1695 21.9659 10.3434 21.9692 10.516 21.9769C10.6711 21.9835 10.8229 22 10.9792 22H10.9945C11.0847 22 11.176 21.9989 11.2662 21.9967C13.4398 21.9439 15.444 21.2564 17.1238 20.1267C17.1392 20.1157 17.1568 20.1069 17.1722 20.0959C17.4076 19.9353 17.6331 19.7648 17.8553 19.5877C17.9125 19.5426 17.9708 19.4986 18.0269 19.4524C18.2018 19.3072 18.369 19.1543 18.534 18.9981C18.6011 18.9354 18.6726 18.8782 18.7386 18.8144C18.7375 18.8111 18.7375 18.8078 18.7363 18.8045C20.8099 16.7486 22.0727 13.8831 21.9968 10.7338H21.9968ZM13.364 14.3H8.62733C6.82112 14.3 5.23163 15.2075 4.23391 16.5891C3.01176 15.1162 2.25169 13.2473 2.2022 11.2123C2.14501 8.86268 3.00738 6.6319 4.62876 4.9302C6.2502 3.2285 8.43812 2.25941 10.7877 2.20222L11.0055 2.2C15.7389 2.2 19.6835 6.05222 19.7979 10.7877C19.8496 12.9327 19.128 14.9732 17.7705 16.6078C16.7729 15.2163 15.1789 14.3 13.364 14.3Z" fill="#F1862F"/>
<path id="Vector_2" d="M11.5271 4.40002H10.4722C8.94099 4.40002 7.7002 5.64192 7.7002 7.1731V9.32695C7.7002 10.8581 8.94099 12.1 10.4722 12.1H13.2222C13.8173 12.1 14.3002 11.6171 14.3002 11.022V7.1731C14.3002 5.64192 13.0583 4.40002 11.5271 4.40002Z" fill="#F1862F"/>
</g>
</g>
</svg>
