<svg width="22" height="22" viewBox="0 0 22 22" fill="none" xmlns="http://www.w3.org/2000/svg">
<g id="User">
<path id="Vector" d="M18.5881 3.03847C16.4547 1.01475 13.6724 -0.0630925 10.7361 0.00285666C7.79988 0.0688587 5.06157 1.28968 3.03809 3.41241C1.01462 5.54613 -0.0630846 8.32877 0.0028563 11.2654C0.06885 14.202 1.28952 16.9407 3.41199 18.9644C5.47944 20.9331 8.15176 22 10.9891 22H11.2639C14.2002 21.934 16.9385 20.7132 18.962 18.5904C20.9854 16.4677 22.0631 13.6741 21.9971 10.7375C21.9202 7.80086 20.7105 5.0622 18.5881 3.03847H18.5881ZM11.231 20.3502C9.02056 20.4052 6.89809 19.6903 5.19355 18.3155C5.69938 16.9297 7.03008 15.9618 8.53669 15.9618H13.4854C14.992 15.9618 16.3227 16.9296 16.8286 18.3045C15.2339 19.5803 13.2874 20.2952 11.231 20.3502ZM18.0713 17.1056C17.1805 15.4339 15.4319 14.312 13.4744 14.312H8.52566C6.56818 14.312 4.80863 15.4339 3.92885 17.1166C2.51025 15.4778 1.7074 13.4211 1.66342 11.2324C1.59742 8.73571 2.51025 6.36001 4.23675 4.55625C5.96336 2.7525 8.28375 1.71864 10.7801 1.66363H11.011C13.4194 1.66363 15.6958 2.57656 17.4554 4.24826C19.2589 5.97509 20.2927 8.29577 20.3477 10.7925C20.4026 13.1131 19.5888 15.3458 18.0713 17.1056Z" fill="white"/>
<path id="Vector_2" d="M11.2751 3.30212H10.7252C8.75672 3.30212 7.15112 4.90793 7.15112 6.87669V9.0764C7.15112 11.0451 8.75672 12.6509 10.7252 12.6509H14.0243C14.4752 12.6509 14.8492 12.277 14.8492 11.826V6.87669C14.8492 4.90793 13.2436 3.30212 11.275 3.30212H11.2751ZM13.1996 11.0011H10.7252C9.6695 11.0011 8.8007 10.1322 8.8007 9.0764V6.87669C8.8007 5.82081 9.6695 4.95191 10.7252 4.95191H11.275C12.3308 4.95191 13.1996 5.80978 13.1996 6.87669V11.0011Z" fill="white"/>
</g>
</svg>
